<svg width="1920" height="480" viewBox="0 0 1920 480" fill="none" xmlns="http://www.w3.org/2000/svg">
<path d="M1920 0H0V480H1920V0Z" fill="#08750A"/>
<g opacity="0.6">
<path opacity="0.6" d="M504.07 219.381V282.101L585.54 235.061V156.671L558.39 172.341V188.021L504.07 219.381Z" stroke="white" stroke-linecap="round" stroke-linejoin="round"/>
<path opacity="0.6" d="M585.54 172.341L558.39 188.021L555.87 186.571" stroke="white" stroke-linecap="round" stroke-linejoin="round"/>
<path opacity="0.6" d="M585.54 156.67L583.06 155.23L555.87 170.89L558.39 172.35" stroke="white" stroke-linecap="round" stroke-linejoin="round"/>
<path opacity="0.6" d="M555.87 170.891V186.571L501.2 217.721L504.07 219.381" stroke="white" stroke-linecap="round" stroke-linejoin="round"/>
<path opacity="0.6" d="M501.2 217.721V280.411L504.07 282.101" stroke="white" stroke-linecap="round" stroke-linejoin="round"/>
</g>
<g opacity="0.6">
<path opacity="0.6" d="M1754.39 103.06V165.78L1835.87 118.74V40.3398L1808.71 56.0198V71.6998L1754.39 103.06Z" stroke="white" stroke-linecap="round" stroke-linejoin="round"/>
<path opacity="0.6" d="M1835.87 56.0205L1808.71 71.7005L1806.19 70.2505" stroke="white" stroke-linecap="round" stroke-linejoin="round"/>
<path opacity="0.6" d="M1835.86 40.3401L1833.38 38.9102L1806.19 54.5702L1808.71 56.0201" stroke="white" stroke-linecap="round" stroke-linejoin="round"/>
<path opacity="0.6" d="M1806.19 54.5703V70.2503L1751.52 101.4L1754.39 103.06" stroke="white" stroke-linecap="round" stroke-linejoin="round"/>
<path opacity="0.6" d="M1751.52 101.4V164.09L1754.39 165.78" stroke="white" stroke-linecap="round" stroke-linejoin="round"/>
</g>
<g opacity="0.6">
<path opacity="0.6" d="M823.05 423.93V356.48L893.14 316.01V383.46L823.05 423.93Z" stroke="white" stroke-linecap="round" stroke-linejoin="round"/>
<path opacity="0.6" d="M823.05 369.971L893.09 329.681" stroke="white" stroke-linecap="round" stroke-linejoin="round"/>
<path opacity="0.6" d="M828.89 357.321V362.541L833.39 359.941L833.4 354.721L828.89 357.321Z" stroke="white" stroke-linecap="round" stroke-linejoin="round"/>
<path opacity="0.6" d="M835.22 353.831V359.041L839.72 356.441L839.73 351.221L835.22 353.831Z" stroke="white" stroke-linecap="round" stroke-linejoin="round"/>
<path opacity="0.6" d="M841.74 350.371V355.591L846.24 352.991L846.25 347.771L841.74 350.371Z" stroke="white" stroke-linecap="round" stroke-linejoin="round"/>
<path opacity="0.6" d="M829.51 377.71L888.99 343.37V347.43L829.51 381.81V377.71Z" stroke="white" stroke-linecap="round" stroke-linejoin="round"/>
<path opacity="0.6" d="M848.86 364.561V372.401L855.64 368.491L855.65 360.641L848.86 364.561Z" stroke="white" stroke-linecap="round" stroke-linejoin="round"/>
<path opacity="0.6" d="M829.51 390.94L888.99 356.61V360.67L829.51 395.04V390.94Z" stroke="white" stroke-linecap="round" stroke-linejoin="round"/>
<path opacity="0.6" d="M866.38 368.01V375.86L873.16 371.94L873.17 364.09L866.38 368.01Z" stroke="white" stroke-linecap="round" stroke-linejoin="round"/>
<path opacity="0.6" d="M829.51 404.32L888.99 369.99V374.04L829.51 408.42V404.32Z" stroke="white" stroke-linecap="round" stroke-linejoin="round"/>
<path opacity="0.6" d="M842.85 394.99V402.84L849.63 398.92L849.65 391.07L842.85 394.99Z" stroke="white" stroke-linecap="round" stroke-linejoin="round"/>
<path opacity="0.6" d="M893.14 316.01L890.08 314.24L819.99 354.72V422.17L823.05 423.93" stroke="white" stroke-linecap="round" stroke-linejoin="round"/>
<path opacity="0.6" d="M819.99 354.721L823.05 356.481" stroke="white" stroke-linecap="round" stroke-linejoin="round"/>
</g>
<g opacity="0.6">
<path opacity="0.6" d="M88.36 417.38V349.93L158.46 309.46V376.91L88.36 417.38Z" stroke="white" stroke-linecap="round" stroke-linejoin="round"/>
<path opacity="0.6" d="M88.36 363.421L158.4 323.131" stroke="white" stroke-linecap="round" stroke-linejoin="round"/>
<path opacity="0.6" d="M94.2 350.771V355.991L98.7 353.391L98.72 348.171L94.2 350.771Z" stroke="white" stroke-linecap="round" stroke-linejoin="round"/>
<path opacity="0.6" d="M100.53 347.281V352.491L105.03 349.891L105.05 344.671L100.53 347.281Z" stroke="white" stroke-linecap="round" stroke-linejoin="round"/>
<path opacity="0.6" d="M107.05 343.821V349.041L111.55 346.441L111.56 341.221L107.05 343.821Z" stroke="white" stroke-linecap="round" stroke-linejoin="round"/>
<path opacity="0.6" d="M94.83 371.16L154.3 336.82V340.88L94.83 375.25V371.16Z" stroke="white" stroke-linecap="round" stroke-linejoin="round"/>
<path opacity="0.6" d="M114.17 358.011V365.861L120.95 361.941L120.96 354.091L114.17 358.011Z" stroke="white" stroke-linecap="round" stroke-linejoin="round"/>
<path opacity="0.6" d="M94.83 384.391L154.3 350.061V354.111L94.83 388.491V384.391Z" stroke="white" stroke-linecap="round" stroke-linejoin="round"/>
<path opacity="0.6" d="M131.69 361.46V369.31L138.47 365.39L138.49 357.54L131.69 361.46Z" stroke="white" stroke-linecap="round" stroke-linejoin="round"/>
<path opacity="0.6" d="M94.83 397.77L154.3 363.44V367.49L94.83 401.87V397.77Z" stroke="white" stroke-linecap="round" stroke-linejoin="round"/>
<path opacity="0.6" d="M108.17 388.441V396.291L114.94 392.371L114.96 384.521L108.17 388.441Z" stroke="white" stroke-linecap="round" stroke-linejoin="round"/>
<path opacity="0.6" d="M158.46 309.46L155.39 307.69L85.3 348.17V415.62L88.36 417.38" stroke="white" stroke-linecap="round" stroke-linejoin="round"/>
<path opacity="0.6" d="M85.3 348.171L88.36 349.931" stroke="white" stroke-linecap="round" stroke-linejoin="round"/>
</g>
<g opacity="0.6">
<path opacity="0.6" d="M1519.53 411.209V343.759L1589.62 303.289V370.739L1519.53 411.209Z" stroke="white" stroke-linecap="round" stroke-linejoin="round"/>
<path opacity="0.6" d="M1519.52 357.25L1589.57 316.96" stroke="white" stroke-linecap="round" stroke-linejoin="round"/>
<path opacity="0.6" d="M1525.37 344.61V349.82L1529.87 347.22L1529.88 342L1525.37 344.61Z" stroke="white" stroke-linecap="round" stroke-linejoin="round"/>
<path opacity="0.6" d="M1531.7 341.11V346.32L1536.2 343.72L1536.21 338.5L1531.7 341.11Z" stroke="white" stroke-linecap="round" stroke-linejoin="round"/>
<path opacity="0.6" d="M1538.21 337.66V342.87L1542.72 340.27L1542.73 335.05L1538.21 337.66Z" stroke="white" stroke-linecap="round" stroke-linejoin="round"/>
<path opacity="0.6" d="M1525.99 364.989L1585.47 330.649V334.709L1525.99 369.089V364.989Z" stroke="white" stroke-linecap="round" stroke-linejoin="round"/>
<path opacity="0.6" d="M1545.33 351.84V359.69L1552.11 355.77L1552.13 347.92L1545.33 351.84Z" stroke="white" stroke-linecap="round" stroke-linejoin="round"/>
<path opacity="0.6" d="M1525.99 378.23L1585.47 343.89V347.95L1525.99 382.32V378.23Z" stroke="white" stroke-linecap="round" stroke-linejoin="round"/>
<path opacity="0.6" d="M1562.86 355.289V363.139L1569.64 359.219L1569.65 351.369L1562.86 355.289Z" stroke="white" stroke-linecap="round" stroke-linejoin="round"/>
<path opacity="0.6" d="M1525.99 391.61L1585.47 357.27V361.32L1525.99 395.7V391.61Z" stroke="white" stroke-linecap="round" stroke-linejoin="round"/>
<path opacity="0.6" d="M1539.33 382.27V390.12L1546.11 386.2L1546.12 378.35L1539.33 382.27Z" stroke="white" stroke-linecap="round" stroke-linejoin="round"/>
<path opacity="0.6" d="M1589.62 303.29L1586.55 301.52L1516.47 342V409.45L1519.53 411.21" stroke="white" stroke-linecap="round" stroke-linejoin="round"/>
<path opacity="0.6" d="M1516.47 342L1519.52 343.76" stroke="white" stroke-linecap="round" stroke-linejoin="round"/>
</g>
<g opacity="0.6">
<path opacity="0.6" d="M1328.2 97.5605V179.511L1399.17 220.481V138.531L1328.2 97.5605Z" stroke="white" stroke-linecap="round" stroke-linejoin="round"/>
<path opacity="0.6" d="M1328.2 97.5603L1345.94 87.3203L1416.91 128.29V210.24L1399.17 220.48" stroke="white" stroke-linecap="round" stroke-linejoin="round"/>
<path opacity="0.6" d="M1399.17 138.53L1416.91 128.29" stroke="white" stroke-linecap="round" stroke-linejoin="round"/>
<path opacity="0.6" d="M1333.29 161.961V109.271L1392.69 142.271V196.251L1333.29 161.961Z" stroke="white" stroke-linecap="round" stroke-linejoin="round"/>
<path opacity="0.6" d="M1338.72 157.56L1348.86 151.7L1357.11 156.47L1367.27 151.7L1376.76 156.08L1388.17 149.5" stroke="white" stroke-linecap="round" stroke-linejoin="round"/>
<path opacity="0.6" d="M1365.67 151.8C1365.67 152.066 1365.74 152.327 1365.87 152.557C1366.01 152.787 1366.2 152.978 1366.43 153.11C1366.66 153.243 1366.92 153.313 1367.19 153.314C1367.45 153.314 1367.72 153.244 1367.95 153.112C1368.18 152.979 1368.37 152.788 1368.5 152.558C1368.64 152.328 1368.71 152.066 1368.71 151.8C1368.71 151.533 1368.64 151.27 1368.51 151.038C1368.37 150.806 1368.18 150.614 1367.95 150.48V150.48C1367.72 150.346 1367.46 150.276 1367.19 150.276C1366.92 150.277 1366.66 150.347 1366.43 150.481C1366.2 150.615 1366.01 150.807 1365.87 151.039C1365.74 151.27 1365.67 151.533 1365.67 151.8Z" stroke="white" stroke-linecap="round" stroke-linejoin="round"/>
<path opacity="0.6" d="M1347.56 151.8C1347.56 152.066 1347.63 152.328 1347.76 152.558C1347.9 152.788 1348.09 152.978 1348.32 153.11V153.11C1348.55 153.246 1348.81 153.318 1349.08 153.32C1349.35 153.321 1349.61 153.252 1349.84 153.119C1350.08 152.986 1350.27 152.794 1350.4 152.563C1350.54 152.331 1350.61 152.068 1350.61 151.8V151.8C1350.61 151.533 1350.54 151.27 1350.41 151.038C1350.27 150.807 1350.08 150.614 1349.85 150.48V150.48C1349.62 150.348 1349.36 150.278 1349.09 150.278C1348.82 150.279 1348.56 150.349 1348.33 150.483C1348.09 150.616 1347.9 150.808 1347.77 151.039C1347.63 151.271 1347.56 151.533 1347.56 151.8V151.8Z" stroke="white" stroke-linecap="round" stroke-linejoin="round"/>
<path opacity="0.6" d="M1337.2 157.561C1337.2 157.828 1337.27 158.09 1337.4 158.322C1337.54 158.554 1337.73 158.746 1337.96 158.881V158.881C1338.19 159.014 1338.45 159.085 1338.72 159.084C1338.99 159.084 1339.25 159.014 1339.48 158.88C1339.71 158.746 1339.9 158.554 1340.04 158.322C1340.17 158.09 1340.24 157.828 1340.24 157.561V157.561C1340.24 157.294 1340.17 157.032 1340.03 156.8C1339.9 156.569 1339.71 156.376 1339.48 156.241V156.241C1339.25 156.107 1338.99 156.037 1338.72 156.037C1338.45 156.037 1338.19 156.108 1337.96 156.242C1337.73 156.375 1337.54 156.568 1337.4 156.799C1337.27 157.031 1337.2 157.294 1337.2 157.561V157.561Z" stroke="white" stroke-linecap="round" stroke-linejoin="round"/>
<path opacity="0.6" d="M1386.65 149.5C1386.65 149.766 1386.72 150.027 1386.85 150.257C1386.99 150.487 1387.18 150.678 1387.41 150.81V150.81C1387.64 150.943 1387.9 151.014 1388.17 151.014C1388.43 151.014 1388.7 150.944 1388.93 150.812C1389.16 150.679 1389.35 150.488 1389.48 150.258C1389.62 150.028 1389.69 149.766 1389.69 149.5V149.5C1389.69 149.233 1389.62 148.97 1389.49 148.738C1389.35 148.506 1389.16 148.314 1388.93 148.18V148.18C1388.7 148.047 1388.44 147.976 1388.17 147.977C1387.9 147.977 1387.64 148.047 1387.41 148.181C1387.18 148.315 1386.99 148.507 1386.85 148.739C1386.72 148.971 1386.65 149.233 1386.65 149.5Z" stroke="white" stroke-linecap="round" stroke-linejoin="round"/>
<path opacity="0.6" d="M1333.29 167.48L1381.42 195.11" stroke="white" stroke-linecap="round" stroke-linejoin="round"/>
<path opacity="0.6" d="M1333.29 171.801L1373.19 194.501" stroke="white" stroke-linecap="round" stroke-linejoin="round"/>
<path opacity="0.6" d="M1333.29 176.57L1363.44 193.38" stroke="white" stroke-linecap="round" stroke-linejoin="round"/>
</g>
<g opacity="0.6">
<path opacity="0.6" d="M1748.7 282.93V364.87L1819.67 405.85V323.9L1748.7 282.93Z" stroke="white" stroke-linecap="round" stroke-linejoin="round"/>
<path opacity="0.6" d="M1748.7 282.93L1766.44 272.68L1837.41 313.66V395.6L1819.67 405.85" stroke="white" stroke-linecap="round" stroke-linejoin="round"/>
<path opacity="0.6" d="M1819.67 323.9L1837.41 313.66" stroke="white" stroke-linecap="round" stroke-linejoin="round"/>
<path opacity="0.6" d="M1753.79 347.32V294.63L1813.19 327.64V381.62L1753.79 347.32Z" stroke="white" stroke-linecap="round" stroke-linejoin="round"/>
<path opacity="0.6" d="M1759.22 342.929L1769.37 337.069L1777.61 341.829L1787.77 337.069L1797.27 341.449L1808.67 334.859" stroke="white" stroke-linecap="round" stroke-linejoin="round"/>
<path opacity="0.6" d="M1786.17 337.16C1786.17 337.427 1786.24 337.69 1786.37 337.922C1786.51 338.154 1786.7 338.346 1786.93 338.48V338.48C1787.16 338.613 1787.42 338.684 1787.69 338.683C1787.96 338.683 1788.22 338.613 1788.45 338.479C1788.68 338.345 1788.87 338.153 1789.01 337.921C1789.14 337.689 1789.21 337.427 1789.21 337.16C1789.21 336.894 1789.14 336.633 1789.01 336.403C1788.87 336.173 1788.68 335.982 1788.45 335.85V335.85C1788.22 335.713 1787.96 335.641 1787.69 335.639C1787.42 335.637 1787.16 335.706 1786.93 335.839C1786.7 335.973 1786.5 336.165 1786.37 336.397C1786.24 336.629 1786.17 336.892 1786.17 337.16V337.16Z" stroke="white" stroke-linecap="round" stroke-linejoin="round"/>
<path opacity="0.6" d="M1768.07 337.16C1768.07 337.428 1768.14 337.691 1768.27 337.923C1768.4 338.156 1768.6 338.348 1768.83 338.48V338.48C1769.06 338.613 1769.32 338.684 1769.59 338.683C1769.86 338.683 1770.12 338.613 1770.35 338.479C1770.58 338.345 1770.77 338.153 1770.91 337.921C1771.04 337.689 1771.11 337.427 1771.11 337.16V337.16C1771.11 336.894 1771.04 336.633 1770.91 336.403C1770.77 336.173 1770.58 335.982 1770.35 335.85V335.85C1770.12 335.713 1769.86 335.641 1769.59 335.639C1769.32 335.637 1769.06 335.706 1768.83 335.839C1768.6 335.973 1768.4 336.165 1768.27 336.397C1768.14 336.629 1768.07 336.892 1768.07 337.16V337.16Z" stroke="white" stroke-linecap="round" stroke-linejoin="round"/>
<path opacity="0.6" d="M1757.7 342.93C1757.7 343.196 1757.77 343.457 1757.9 343.687C1758.04 343.917 1758.23 344.108 1758.46 344.24V344.24C1758.69 344.373 1758.95 344.443 1759.22 344.444C1759.48 344.444 1759.75 344.374 1759.98 344.242C1760.21 344.109 1760.4 343.918 1760.53 343.688C1760.67 343.457 1760.74 343.196 1760.74 342.93V342.93C1760.74 342.662 1760.67 342.4 1760.54 342.168C1760.4 341.936 1760.21 341.744 1759.98 341.61V341.61C1759.75 341.476 1759.49 341.406 1759.22 341.406C1758.95 341.406 1758.69 341.477 1758.46 341.611C1758.23 341.745 1758.04 341.937 1757.9 342.169C1757.77 342.4 1757.7 342.663 1757.7 342.93Z" stroke="white" stroke-linecap="round" stroke-linejoin="round"/>
<path opacity="0.6" d="M1807.15 334.859C1807.15 335.127 1807.22 335.39 1807.35 335.621C1807.49 335.853 1807.68 336.046 1807.91 336.179V336.179C1808.14 336.313 1808.4 336.383 1808.67 336.383C1808.94 336.383 1809.2 336.312 1809.43 336.178C1809.66 336.045 1809.85 335.852 1809.99 335.621C1810.12 335.389 1810.19 335.126 1810.19 334.859V334.859C1810.19 334.593 1810.12 334.332 1809.99 334.102C1809.85 333.872 1809.66 333.681 1809.43 333.549V333.549C1809.2 333.416 1808.94 333.346 1808.67 333.346C1808.41 333.345 1808.14 333.415 1807.91 333.548C1807.68 333.68 1807.49 333.871 1807.36 334.102C1807.22 334.332 1807.15 334.593 1807.15 334.859V334.859Z" stroke="white" stroke-linecap="round" stroke-linejoin="round"/>
<path opacity="0.6" d="M1753.79 352.84L1801.92 380.48" stroke="white" stroke-linecap="round" stroke-linejoin="round"/>
<path opacity="0.6" d="M1753.79 357.16L1793.69 379.87" stroke="white" stroke-linecap="round" stroke-linejoin="round"/>
<path opacity="0.6" d="M1753.79 361.93L1783.94 378.75" stroke="white" stroke-linecap="round" stroke-linejoin="round"/>
</g>
<g opacity="0.6">
<path opacity="0.6" d="M1298.47 395.77L1422.86 323.68" stroke="white" stroke-linecap="round" stroke-linejoin="round"/>
<path opacity="0.6" d="M1236.27 359.59L1298.47 395.77V405.76" stroke="white" stroke-linecap="round" stroke-linejoin="round"/>
<path opacity="0.6" d="M1422.86 323.68L1360.67 287.77L1236.27 359.59V369.85L1298.47 405.76L1422.86 333.94V323.68Z" stroke="white" stroke-linecap="round" stroke-linejoin="round"/>
<path opacity="0.6" d="M1254.04 359.589L1298.47 385.239L1405.09 323.679L1360.67 298.029L1254.04 359.589Z" stroke="white" stroke-linecap="round" stroke-linejoin="round"/>
<path opacity="0.6" d="M1254 359.59L1262.89 364.72C1263.79 364.201 1264.54 363.453 1265.06 362.553C1265.58 361.652 1265.86 360.63 1265.86 359.59C1265.86 358.55 1265.58 357.528 1265.06 356.627C1264.54 355.727 1263.79 354.979 1262.89 354.46V354.46L1254 359.59Z" stroke="white" stroke-linecap="round" stroke-linejoin="round"/>
<path opacity="0.6" d="M1405.2 323.669L1396.32 318.539C1395.42 319.058 1394.67 319.806 1394.15 320.706C1393.63 321.607 1393.35 322.629 1393.35 323.669C1393.35 324.709 1393.63 325.731 1394.15 326.632C1394.67 327.532 1395.42 328.28 1396.32 328.799V328.799L1405.2 323.669Z" stroke="white" stroke-linecap="round" stroke-linejoin="round"/>
<path opacity="0.6" d="M1289.58 380.109C1292.28 378.551 1295.35 377.731 1298.47 377.731C1301.58 377.731 1304.65 378.551 1307.35 380.109V380.109L1298.47 385.239L1289.58 380.109Z" stroke="white" stroke-linecap="round" stroke-linejoin="round"/>
<path opacity="0.6" d="M1369.55 303.159C1366.85 304.722 1363.78 305.545 1360.67 305.545C1357.55 305.545 1354.48 304.722 1351.78 303.159V303.159L1360.67 298.029L1369.55 303.159Z" stroke="white" stroke-linecap="round" stroke-linejoin="round"/>
<path opacity="0.6" d="M1329.2 339.899L1336.82 335.499L1348.24 342.099L1344.43 344.299L1348.24 346.489L1344.43 348.689L1340.62 346.489L1336.82 348.689L1332.76 346.639L1340.62 342.099L1336.82 339.899L1329.2 344.299L1317.78 337.699L1321.59 335.499L1317.78 333.299L1321.59 331.109L1325.39 333.299L1329.2 331.109L1333.01 333.299L1325.39 337.699L1329.2 339.899Z" stroke="white" stroke-linecap="round" stroke-linejoin="round"/>
<path opacity="0.6" d="M1248.51 377.159L1248.75 387.539L1304.68 419.829L1422.49 352.269V341.779L1304.68 409.339L1248.51 377.159Z" stroke="white" stroke-linecap="round" stroke-linejoin="round"/>
<path opacity="0.6" d="M1304.68 409.34V419.83" stroke="white" stroke-linecap="round" stroke-linejoin="round"/>
<path opacity="0.6" d="M1422.86 342.16L1415.32 338.3" stroke="white" stroke-linecap="round" stroke-linejoin="round"/>
</g>
<g opacity="0.6">
<path opacity="0.6" d="M751.75 285.36L876.15 213.271" stroke="white" stroke-linecap="round" stroke-linejoin="round"/>
<path opacity="0.6" d="M689.55 249.181L751.75 285.361V295.351" stroke="white" stroke-linecap="round" stroke-linejoin="round"/>
<path opacity="0.6" d="M876.15 213.27L813.95 177.36L689.55 249.18V259.44L751.75 295.35L876.15 223.53V213.27Z" stroke="white" stroke-linecap="round" stroke-linejoin="round"/>
<path opacity="0.6" d="M707.33 249.18L751.75 274.83L858.38 213.27L813.95 187.62L707.33 249.18Z" stroke="white" stroke-linecap="round" stroke-linejoin="round"/>
<path opacity="0.6" d="M707.33 249.181L716.21 254.311C717.112 253.792 717.86 253.044 718.381 252.143C718.901 251.243 719.175 250.221 719.175 249.181C719.175 248.141 718.901 247.119 718.381 246.218C717.86 245.317 717.112 244.57 716.21 244.051V244.051L707.33 249.181Z" stroke="white" stroke-linecap="round" stroke-linejoin="round"/>
<path opacity="0.6" d="M858.48 213.26L849.6 208.13C848.699 208.649 847.95 209.397 847.429 210.297C846.909 211.198 846.635 212.22 846.635 213.26C846.635 214.3 846.909 215.322 847.429 216.223C847.95 217.123 848.699 217.871 849.6 218.39V218.39L858.48 213.26Z" stroke="white" stroke-linecap="round" stroke-linejoin="round"/>
<path opacity="0.6" d="M742.87 269.7C745.572 268.142 748.636 267.322 751.755 267.322C754.874 267.322 757.938 268.142 760.64 269.7V269.7L751.75 274.83L742.87 269.7Z" stroke="white" stroke-linecap="round" stroke-linejoin="round"/>
<path opacity="0.6" d="M822.83 192.75C820.13 194.313 817.065 195.135 813.945 195.135C810.825 195.135 807.76 194.313 805.06 192.75V192.75L813.95 187.62L822.83 192.75Z" stroke="white" stroke-linecap="round" stroke-linejoin="round"/>
<path opacity="0.6" d="M782.48 229.49L790.1 225.09L801.52 231.69L797.71 233.88L801.52 236.08L797.71 238.28L793.91 236.08L790.1 238.28L786.04 236.23L793.91 231.69L790.1 229.49L782.48 233.88L771.06 227.29L774.87 225.09L771.06 222.89L774.87 220.69L778.68 222.89L782.48 220.69L786.29 222.89L778.68 227.29L782.48 229.49Z" stroke="white" stroke-linecap="round" stroke-linejoin="round"/>
<path opacity="0.6" d="M701.79 266.75L702.03 277.13L757.96 309.42L875.78 241.86V231.37L757.96 298.93L701.79 266.75Z" stroke="white" stroke-linecap="round" stroke-linejoin="round"/>
<path opacity="0.6" d="M757.96 298.931V309.421" stroke="white" stroke-linecap="round" stroke-linejoin="round"/>
<path opacity="0.6" d="M876.15 231.751L868.61 227.891" stroke="white" stroke-linecap="round" stroke-linejoin="round"/>
</g>
<g opacity="0.6">
<path opacity="0.6" d="M300.62 412.541V302.181L324.4 288.961V398.811L300.62 412.541Z" stroke="white" stroke-linecap="round" stroke-linejoin="round"/>
<path opacity="0.6" d="M300.62 412.541L276.84 398.811V288.961L300.62 302.181" stroke="white" stroke-linecap="round" stroke-linejoin="round"/>
<path opacity="0.6" d="M276.84 288.96L300.62 275.23L324.4 288.96" stroke="white" stroke-linecap="round" stroke-linejoin="round"/>
<path opacity="0.6" d="M324.4 343.89L348.19 330.16V385.08L324.4 398.81" stroke="white" stroke-linecap="round" stroke-linejoin="round"/>
<path opacity="0.6" d="M324.4 316.431L348.19 330.161" stroke="white" stroke-linecap="round" stroke-linejoin="round"/>
<path opacity="0.6" d="M348.19 364.48C350.8 363.48 371.97 350.75 371.97 350.75V371.35L348.19 385.08" stroke="white" stroke-linecap="round" stroke-linejoin="round"/>
<path opacity="0.6" d="M371.97 350.751L348.19 339.261" stroke="white" stroke-linecap="round" stroke-linejoin="round"/>
</g>
<g opacity="0.6">
<path opacity="0.6" d="M1036 389.99V343.02L1056.34 354.77V401.74L1036 389.99Z" stroke="white" stroke-linecap="round" stroke-linejoin="round"/>
<path opacity="0.6" d="M1056.34 401.74V307.79L1076.68 319.54V413.48L1056.34 401.74Z" stroke="white" stroke-linecap="round" stroke-linejoin="round"/>
<path opacity="0.6" d="M1076.68 413.479V366.479L1097 378.249V425.249L1076.68 413.479Z" stroke="white" stroke-linecap="round" stroke-linejoin="round"/>
<path opacity="0.6" d="M1076.68 366.51L1097.02 354.77L1117.36 366.51V413.48L1097.02 425.22" stroke="white" stroke-linecap="round" stroke-linejoin="round"/>
<path opacity="0.6" d="M1097.02 378.25L1117.36 366.51" stroke="white" stroke-linecap="round" stroke-linejoin="round"/>
<path opacity="0.6" d="M1097.02 354.77V307.79L1076.68 319.54" stroke="white" stroke-linecap="round" stroke-linejoin="round"/>
<path opacity="0.6" d="M1056.34 307.79L1076.68 296.05L1097.02 307.79" stroke="white" stroke-linecap="round" stroke-linejoin="round"/>
<path opacity="0.6" d="M1036 343.02L1056.34 331.28" stroke="white" stroke-linecap="round" stroke-linejoin="round"/>
</g>
<g opacity="0.6">
<path opacity="0.6" d="M653.57 376.43C653.57 385.84 633.76 393.43 609.31 393.43C584.86 393.43 565.06 385.8 565.06 376.43" stroke="white" stroke-linecap="round" stroke-linejoin="round"/>
<path opacity="0.6" d="M609.31 376.43C633.754 376.43 653.57 368.806 653.57 359.4C653.57 349.995 633.754 342.37 609.31 342.37C584.866 342.37 565.05 349.995 565.05 359.4C565.05 368.806 584.866 376.43 609.31 376.43Z" stroke="white" stroke-linecap="round" stroke-linejoin="round"/>
<path opacity="0.6" d="M653.57 376.43V359.4H609.31L594.56 343.33" stroke="white" stroke-linecap="round" stroke-linejoin="round"/>
<path opacity="0.6" d="M565.06 376.43V359.4" stroke="white" stroke-linecap="round" stroke-linejoin="round"/>
<path opacity="0.6" d="M609.31 342.37V359.01" stroke="white" stroke-linecap="round" stroke-linejoin="round"/>
</g>
<g opacity="0.6">
<path opacity="0.6" d="M1525.37 206.22C1540.61 206.22 1552.96 201.466 1552.96 195.6C1552.96 189.735 1540.61 184.98 1525.37 184.98C1510.13 184.98 1497.78 189.735 1497.78 195.6C1497.78 201.466 1510.13 206.22 1525.37 206.22Z" stroke="white" stroke-linecap="round" stroke-linejoin="round"/>
<path opacity="0.6" d="M1553 206.221C1553 212.081 1540.65 216.841 1525.41 216.841C1510.17 216.841 1497.81 212.081 1497.81 206.221" stroke="white" stroke-linecap="round" stroke-linejoin="round"/>
<path opacity="0.6" d="M1552.96 206.221V195.601" stroke="white" stroke-linecap="round" stroke-linejoin="round"/>
<path opacity="0.6" d="M1497.77 206.221V195.601" stroke="white" stroke-linecap="round" stroke-linejoin="round"/>
<path opacity="0.6" d="M1553 216.841C1553 222.701 1540.65 227.461 1525.41 227.461C1510.17 227.461 1497.81 222.701 1497.81 216.841" stroke="white" stroke-linecap="round" stroke-linejoin="round"/>
<path opacity="0.6" d="M1552.96 216.841V206.221" stroke="white" stroke-linecap="round" stroke-linejoin="round"/>
<path opacity="0.6" d="M1497.77 216.841V206.221" stroke="white" stroke-linecap="round" stroke-linejoin="round"/>
<path opacity="0.6" d="M1553 227.461C1553 233.331 1540.65 238.081 1525.41 238.081C1510.17 238.081 1497.81 233.331 1497.81 227.461" stroke="white" stroke-linecap="round" stroke-linejoin="round"/>
<path opacity="0.6" d="M1552.96 227.461V216.841" stroke="white" stroke-linecap="round" stroke-linejoin="round"/>
<path opacity="0.6" d="M1497.77 227.461V216.841" stroke="white" stroke-linecap="round" stroke-linejoin="round"/>
<path opacity="0.6" d="M1553 238.08C1553 243.95 1540.65 248.7 1525.41 248.7C1510.17 248.7 1497.81 243.95 1497.81 238.08" stroke="white" stroke-linecap="round" stroke-linejoin="round"/>
<path opacity="0.6" d="M1552.96 238.081V227.461" stroke="white" stroke-linecap="round" stroke-linejoin="round"/>
<path opacity="0.6" d="M1497.77 238.081V227.461" stroke="white" stroke-linecap="round" stroke-linejoin="round"/>
<path opacity="0.6" d="M1553 248.7C1553 254.57 1540.65 259.32 1525.41 259.32C1510.17 259.32 1497.81 254.57 1497.81 248.7" stroke="white" stroke-linecap="round" stroke-linejoin="round"/>
<path opacity="0.6" d="M1552.96 248.7V238.08" stroke="white" stroke-linecap="round" stroke-linejoin="round"/>
<path opacity="0.6" d="M1497.77 248.7V238.08" stroke="white" stroke-linecap="round" stroke-linejoin="round"/>
</g>
<g opacity="0.6">
<path opacity="0.6" d="M977.48 131.8V268.48L1043.24 230.51V93.8398L977.48 131.8Z" stroke="white" stroke-linecap="round" stroke-linejoin="round"/>
<path opacity="0.6" d="M981.51 135.84V259.26L1039.2 225.95V102.53L981.51 135.84Z" stroke="white" stroke-linecap="round" stroke-linejoin="round"/>
<path opacity="0.6" d="M1043.24 93.8402L1030.08 86.2402L964.33 124.21V260.89L977.48 268.48" stroke="white" stroke-linecap="round" stroke-linejoin="round"/>
<path opacity="0.6" d="M964.33 124.21L977.48 131.8" stroke="white" stroke-linecap="round" stroke-linejoin="round"/>
<path opacity="0.6" d="M969.74 142.51V153.24L972.06 154.58V143.85L969.74 142.51Z" stroke="white" stroke-linecap="round" stroke-linejoin="round"/>
<path opacity="0.6" d="M969.74 157.7V168.43L972.06 169.77V159.04L969.74 157.7Z" stroke="white" stroke-linecap="round" stroke-linejoin="round"/>
</g>
<g opacity="0.6">
<path opacity="0.6" d="M89 83.8594V220.539L154.76 182.569V45.8994L89 83.8594Z" stroke="white" stroke-linecap="round" stroke-linejoin="round"/>
<path opacity="0.6" d="M93.03 87.8898V211.32L150.72 178.01V54.5898L93.03 87.8898Z" stroke="white" stroke-linecap="round" stroke-linejoin="round"/>
<path opacity="0.6" d="M154.76 45.8998L141.61 38.2998L75.85 76.2698V212.95L89 220.54" stroke="white" stroke-linecap="round" stroke-linejoin="round"/>
<path opacity="0.6" d="M75.85 76.2695L89 83.8595" stroke="white" stroke-linecap="round" stroke-linejoin="round"/>
<path opacity="0.6" d="M81.26 94.5693V105.299L83.58 106.639V95.9093L81.26 94.5693Z" stroke="white" stroke-linecap="round" stroke-linejoin="round"/>
<path opacity="0.6" d="M81.26 109.76V120.49L83.58 121.83V111.1L81.26 109.76Z" stroke="white" stroke-linecap="round" stroke-linejoin="round"/>
</g>
<g opacity="0.6">
<path opacity="0.6" d="M1552.13 53.6299V114.38L1644.19 167.53L1643.77 106.54L1552.13 53.6299Z" stroke="white" stroke-linecap="round" stroke-linejoin="round"/>
<path opacity="0.6" d="M1556.69 51L1649.41 103.78V164.52L1644.19 167.53L1643.77 106.54L1552.13 53.63L1556.69 51Z" stroke="white" stroke-linecap="round" stroke-linejoin="round"/>
<path opacity="0.6" d="M1643.76 106.54L1649.41 103.78" stroke="white" stroke-linecap="round" stroke-linejoin="round"/>
<path opacity="0.6" d="M1559.33 73.5001V81.8501C1559.33 82.3683 1559.47 82.8764 1559.73 83.3251C1559.99 83.7737 1560.36 84.1475 1560.81 84.4101L1572.57 91.2001C1573.02 91.4473 1573.53 91.5742 1574.04 91.5685C1574.56 91.5629 1575.06 91.4248 1575.51 91.1677C1575.96 90.9105 1576.33 90.5429 1576.59 90.1003C1576.85 89.6576 1577 89.1547 1577.01 88.6401V80.2901C1577.01 79.7702 1576.87 79.2599 1576.61 78.8094C1576.35 78.3588 1575.98 77.9835 1575.53 77.7201L1563.77 70.9301C1563.32 70.6825 1562.81 70.5556 1562.29 70.5617C1561.78 70.5679 1561.27 70.7068 1560.83 70.9651C1560.38 71.2234 1560.01 71.5924 1559.75 72.0364C1559.48 72.4804 1559.34 72.9845 1559.33 73.5001V73.5001Z" stroke="white" stroke-linecap="round" stroke-linejoin="round"/>
<path opacity="0.6" d="M1559.33 95.3299V92.1699L1562.07 93.7499V96.9199L1559.33 95.3299Z" stroke="white" stroke-miterlimit="10"/>
<path opacity="0.6" d="M1563.46 97.7198V94.5498L1566.2 96.1398V99.2998L1563.46 97.7198Z" stroke="white" stroke-miterlimit="10"/>
<path opacity="0.6" d="M1567.61 100.11V96.9502L1570.35 98.5302V101.69L1567.61 100.11Z" stroke="white" stroke-miterlimit="10"/>
<path opacity="0.6" d="M1571.75 102.5V99.3398L1574.49 100.92V104.09L1571.75 102.5Z" stroke="white" stroke-miterlimit="10"/>
<path opacity="0.6" d="M1578.12 106.18V103.02L1580.86 104.6V107.77L1578.12 106.18Z" stroke="white" stroke-miterlimit="10"/>
<path opacity="0.6" d="M1582.25 108.56V105.4L1584.99 106.98V110.15L1582.25 108.56Z" stroke="white" stroke-miterlimit="10"/>
<path opacity="0.6" d="M1586.4 110.96V107.8L1589.14 109.38V112.54L1586.4 110.96Z" stroke="white" stroke-miterlimit="10"/>
<path opacity="0.6" d="M1590.54 113.35V110.19L1593.28 111.77V114.93L1590.54 113.35Z" stroke="white" stroke-miterlimit="10"/>
<path opacity="0.6" d="M1578.12 118.92V115.76L1580.86 117.34V120.5L1578.12 118.92Z" stroke="white" stroke-miterlimit="10"/>
<path opacity="0.6" d="M1582.25 121.3V118.14L1584.99 119.72V122.89L1582.25 121.3Z" stroke="white" stroke-miterlimit="10"/>
<path opacity="0.6" d="M1586.4 123.7V120.54L1589.14 122.12V125.28L1586.4 123.7Z" stroke="white" stroke-miterlimit="10"/>
<path opacity="0.6" d="M1590.54 126.09V122.93L1593.28 124.51V127.67L1590.54 126.09Z" stroke="white" stroke-miterlimit="10"/>
<path opacity="0.6" d="M1601.03 131.4V128.24L1603.77 129.82V132.98L1601.03 131.4Z" stroke="white" stroke-miterlimit="10"/>
<path opacity="0.6" d="M1605.17 133.79V130.63L1607.91 132.21V135.37L1605.17 133.79Z" stroke="white" stroke-miterlimit="10"/>
<path opacity="0.6" d="M1596.9 117.03V113.86L1599.64 115.44V118.61L1596.9 117.03Z" stroke="white" stroke-miterlimit="10"/>
<path opacity="0.6" d="M1601.03 119.41V116.25L1603.77 117.83V120.99L1601.03 119.41Z" stroke="white" stroke-miterlimit="10"/>
<path opacity="0.6" d="M1605.18 121.81V118.64L1607.92 120.22V123.39L1605.18 121.81Z" stroke="white" stroke-miterlimit="10"/>
<path opacity="0.6" d="M1609.32 124.2V121.03L1612.06 122.61V125.78L1609.32 124.2Z" stroke="white" stroke-miterlimit="10"/>
<path opacity="0.6" d="M1615.63 127.84V124.67L1618.37 126.26V129.42L1615.63 127.84Z" stroke="white" stroke-miterlimit="10"/>
<path opacity="0.6" d="M1619.76 130.22V127.06L1622.5 128.64V131.8L1619.76 130.22Z" stroke="white" stroke-miterlimit="10"/>
<path opacity="0.6" d="M1623.91 132.62V129.45L1626.65 131.04V134.2L1623.91 132.62Z" stroke="white" stroke-miterlimit="10"/>
<path opacity="0.6" d="M1628.05 135.01V131.84L1630.79 133.43V136.59L1628.05 135.01Z" stroke="white" stroke-miterlimit="10"/>
</g>
<g opacity="0.6">
<path opacity="0.6" d="M675.32 162.151V125.641L662.67 118.341L681.64 107.381L700.28 140.241L687.97 132.941V169.451L675.32 162.151Z" stroke="white" stroke-linecap="round" stroke-linejoin="round"/>
<path opacity="0.6" d="M681.64 107.38L687.97 103.73L706.94 136.59L700.28 140.24" stroke="white" stroke-linecap="round" stroke-linejoin="round"/>
<path opacity="0.6" d="M694.29 136.69V165.8L687.97 169.45" stroke="white" stroke-linecap="round" stroke-linejoin="round"/>
</g>
<g opacity="0.6">
<path opacity="0.6" d="M542 95.0403V58.5303L529.35 51.2303L548.32 40.2803L566.95 73.1303L554.64 65.8303V102.34L542 95.0403Z" stroke="white" stroke-linecap="round" stroke-linejoin="round"/>
<path opacity="0.6" d="M548.32 40.2799L554.64 36.6299L573.61 69.4799L566.95 73.1299" stroke="white" stroke-linecap="round" stroke-linejoin="round"/>
<path opacity="0.6" d="M560.97 69.5801V98.6901L554.64 102.34" stroke="white" stroke-linecap="round" stroke-linejoin="round"/>
</g>
<g opacity="0.6">
<path opacity="0.6" d="M1190.12 300.79V264.28L1177.47 256.98L1196.45 246.03L1215.08 278.88L1202.77 271.58V308.09L1190.12 300.79Z" stroke="white" stroke-linecap="round" stroke-linejoin="round"/>
<path opacity="0.6" d="M1196.45 246.03L1202.77 242.37L1221.74 275.23L1215.08 278.88" stroke="white" stroke-linecap="round" stroke-linejoin="round"/>
<path opacity="0.6" d="M1209.09 275.33V304.44L1202.77 308.09" stroke="white" stroke-linecap="round" stroke-linejoin="round"/>
</g>
<g opacity="0.6">
<path opacity="0.6" d="M346.27 88.4597L363.57 98.4497L380.88 88.4597L363.57 78.4697L346.27 88.4597Z" stroke="white" stroke-linecap="round" stroke-linejoin="round"/>
<path opacity="0.6" d="M380.88 88.46L328.97 178.37L311.67 188.36" stroke="white" stroke-linecap="round" stroke-linejoin="round"/>
<path opacity="0.6" d="M346.276 88.4584L294.366 178.369L311.669 188.359L363.579 98.4484L346.276 88.4584Z" stroke="white" stroke-linecap="round" stroke-linejoin="round"/>
<path opacity="0.6" d="M288.23 141.61V114.55L311.67 101.02V128.08L288.23 141.61Z" stroke="white" stroke-linecap="round" stroke-linejoin="round"/>
<path opacity="0.6" d="M296.04 119.06V128.08L303.85 123.57V114.55L296.04 119.06Z" stroke="white" stroke-linecap="round" stroke-linejoin="round"/>
<path opacity="0.6" d="M303.85 123.57L296.04 119.06" stroke="white" stroke-linecap="round" stroke-linejoin="round"/>
<path opacity="0.6" d="M311.67 101.02L303.85 96.5098L280.42 110.04V137.1L288.23 141.61" stroke="white" stroke-linecap="round" stroke-linejoin="round"/>
<path opacity="0.6" d="M288.23 114.55L280.42 110.04" stroke="white" stroke-linecap="round" stroke-linejoin="round"/>
<path opacity="0.6" d="M368.74 175.77V148.71L392.17 135.18V162.24L368.74 175.77Z" stroke="white" stroke-linecap="round" stroke-linejoin="round"/>
<path opacity="0.6" d="M376.55 153.22V162.24L384.36 157.73V148.71L376.55 153.22Z" stroke="white" stroke-linecap="round" stroke-linejoin="round"/>
<path opacity="0.6" d="M384.36 157.73L376.55 153.22" stroke="white" stroke-linecap="round" stroke-linejoin="round"/>
<path opacity="0.6" d="M392.17 135.18L384.36 130.67L360.93 144.2V171.26L368.74 175.77" stroke="white" stroke-linecap="round" stroke-linejoin="round"/>
<path opacity="0.6" d="M368.74 148.71L360.93 144.2" stroke="white" stroke-linecap="round" stroke-linejoin="round"/>
</g>
<g opacity="0.6">
<path opacity="0.6" d="M1160.03 131.8V115.66L1174.01 107.58V123.73L1188 115.66V131.8L1174.02 139.88L1174.01 156.02L1160.03 164.1V147.95L1146.05 156.02V139.88L1160.03 131.8Z" stroke="white" stroke-linecap="round" stroke-linejoin="round"/>
<path opacity="0.6" d="M1188 115.66L1174.01 107.58L1160.03 99.5098L1146.05 107.58L1160.03 115.66" stroke="white" stroke-linecap="round" stroke-linejoin="round"/>
<path opacity="0.6" d="M1146.05 139.879L1131.41 132.179L1146.05 123.729L1160.03 131.799" stroke="white" stroke-linecap="round" stroke-linejoin="round"/>
<path opacity="0.6" d="M1146.05 107.58V123.73" stroke="white" stroke-linecap="round" stroke-linejoin="round"/>
<path opacity="0.6" d="M1131.41 132.18V147.57L1146.05 156.02L1160.03 164.1" stroke="white" stroke-linecap="round" stroke-linejoin="round"/>
</g>
<g opacity="0.6">
<path opacity="0.6" d="M1250.27 90.7597V72.6797L1265.93 81.7197V99.7997L1250.27 90.7597Z" stroke="white" stroke-linecap="round" stroke-linejoin="round"/>
<path opacity="0.6" d="M1244.86 63.3096V93.8896L1271.34 109.17V78.5996L1244.86 63.3096Z" stroke="white" stroke-linecap="round" stroke-linejoin="round"/>
</g>
<g opacity="0.6">
<path opacity="0.6" d="M1276.52 212.939V203.899L1284.35 208.419V217.459L1276.52 212.939Z" stroke="white" stroke-linecap="round" stroke-linejoin="round"/>
<path opacity="0.6" d="M1273.82 199.22V214.51L1287.06 222.15V206.86L1273.82 199.22Z" stroke="white" stroke-linecap="round" stroke-linejoin="round"/>
</g>
<g opacity="0.6">
<path opacity="0.6" d="M744.17 364.801V355.761L752 360.281V369.321L744.17 364.801Z" stroke="white" stroke-linecap="round" stroke-linejoin="round"/>
<path opacity="0.6" d="M741.47 351.07V366.36L754.7 374V358.71L741.47 351.07Z" stroke="white" stroke-linecap="round" stroke-linejoin="round"/>
</g>
<g opacity="0.6">
<path opacity="0.6" d="M1489.54 142.141V133.101L1497.37 137.621V146.661L1489.54 142.141Z" stroke="white" stroke-linecap="round" stroke-linejoin="round"/>
<path opacity="0.6" d="M1486.83 128.41V143.7L1500.07 151.34V136.06L1486.83 128.41Z" stroke="white" stroke-linecap="round" stroke-linejoin="round"/>
</g>
<g opacity="0.6">
<path opacity="0.6" d="M1709.13 238.62V229.58L1716.96 234.1V243.14L1709.13 238.62Z" stroke="white" stroke-linecap="round" stroke-linejoin="round"/>
<path opacity="0.6" d="M1706.43 224.89V240.18L1719.67 247.82V232.54L1706.43 224.89Z" stroke="white" stroke-linecap="round" stroke-linejoin="round"/>
</g>
<g opacity="0.6">
<path opacity="0.6" d="M252.12 240.34V231.3L259.95 235.82V244.86L252.12 240.34Z" stroke="white" stroke-linecap="round" stroke-linejoin="round"/>
<path opacity="0.6" d="M249.41 226.62V241.9L262.65 249.54V234.26L249.41 226.62Z" stroke="white" stroke-linecap="round" stroke-linejoin="round"/>
</g>
<g opacity="0.6">
<path opacity="0.6" d="M46.5 297.79V288.75L54.33 293.27V302.31L46.5 297.79Z" stroke="white" stroke-linecap="round" stroke-linejoin="round"/>
<path opacity="0.6" d="M43.8 284.06V299.35L57.04 306.99V291.71L43.8 284.06Z" stroke="white" stroke-linecap="round" stroke-linejoin="round"/>
</g>
<g opacity="0.6">
<path opacity="0.6" d="M621.82 279.351V261.271L637.47 270.311V288.391L621.82 279.351Z" stroke="white" stroke-linecap="round" stroke-linejoin="round"/>
<path opacity="0.6" d="M616.4 251.9V282.48L642.88 297.76V267.19L616.4 251.9Z" stroke="white" stroke-linecap="round" stroke-linejoin="round"/>
</g>
<g opacity="0.6">
<path opacity="0.6" d="M1075.87 73.3105V80.9705L1082.5 77.1405V69.4805L1075.87 73.3105Z" stroke="white" stroke-linecap="round" stroke-linejoin="round"/>
<path opacity="0.6" d="M1069.24 69.48V92.45L1089.13 80.97V58L1069.24 69.48Z" stroke="white" stroke-linecap="round" stroke-linejoin="round"/>
</g>
<g opacity="0.6">
<path opacity="0.6" d="M1851.25 186.44V194.1L1857.88 190.27V182.62L1851.25 186.44Z" stroke="white" stroke-linecap="round" stroke-linejoin="round"/>
<path opacity="0.6" d="M1844.62 182.62V205.59L1864.51 194.1V171.13L1844.62 182.62Z" stroke="white" stroke-linecap="round" stroke-linejoin="round"/>
</g>
<g opacity="0.6">
<path opacity="0.6" d="M849.25 116.221V123.871L855.88 120.051V112.391L849.25 116.221Z" stroke="white" stroke-linecap="round" stroke-linejoin="round"/>
<path opacity="0.6" d="M842.62 112.39V135.36L862.51 123.87V100.9L842.62 112.39Z" stroke="white" stroke-linecap="round" stroke-linejoin="round"/>
</g>
<g opacity="0.6">
<path opacity="0.6" d="M460.48 145.74V150.85L464.9 148.29V143.19L460.48 145.74Z" stroke="white" stroke-linecap="round" stroke-linejoin="round"/>
<path opacity="0.6" d="M456.06 143.19V158.5L469.32 150.85V135.53L456.06 143.19Z" stroke="white" stroke-linecap="round" stroke-linejoin="round"/>
</g>
<g opacity="0.6">
<path opacity="0.6" d="M1653.83 383.97V389.07L1658.25 386.52V381.42L1653.83 383.97Z" stroke="white" stroke-linecap="round" stroke-linejoin="round"/>
<path opacity="0.6" d="M1649.41 381.42V396.73L1662.67 389.07V373.76L1649.41 381.42Z" stroke="white" stroke-linecap="round" stroke-linejoin="round"/>
</g>
<g opacity="0.6">
<path opacity="0.6" d="M942.01 352.53V357.63L946.43 355.08V349.98L942.01 352.53Z" stroke="white" stroke-linecap="round" stroke-linejoin="round"/>
<path opacity="0.6" d="M937.59 349.98V365.29L950.85 357.63V342.32L937.59 349.98Z" stroke="white" stroke-linecap="round" stroke-linejoin="round"/>
</g>
<g opacity="0.6">
<path opacity="0.6" d="M442.79 347.9V355.56L449.43 351.73V344.07L442.79 347.9Z" stroke="white" stroke-linecap="round" stroke-linejoin="round"/>
<path opacity="0.6" d="M436.16 344.07V367.05L456.06 355.56V332.59L436.16 344.07Z" stroke="white" stroke-linecap="round" stroke-linejoin="round"/>
</g>
<g opacity="0.6">
<path opacity="0.6" d="M1470.47 299.61V307.27L1477.11 303.44V295.78L1470.47 299.61Z" stroke="white" stroke-linecap="round" stroke-linejoin="round"/>
<path opacity="0.6" d="M1463.84 295.78V318.75L1483.74 307.27V284.3L1463.84 295.78Z" stroke="white" stroke-linecap="round" stroke-linejoin="round"/>
</g>
</svg>
