<svg width="54" height="49" viewBox="0 0 54 49" fill="none" xmlns="http://www.w3.org/2000/svg">
<path d="M33.8851 5.90098C21.0008 13.6818 13.8472 27.9119 9.54778 41.8289C9.32674 42.5441 9.05651 43.2619 8.80962 43.9605C8.11924 42.5676 3.40843 30.9998 1.50654 31.707C0.395016 32.1204 1.03083 33.6059 1.27544 34.2052C3.04601 38.5372 4.77571 42.4209 6.89125 46.6102C8.48353 49.7639 11.4465 48.9418 14.3816 47.9819C18.8627 46.5165 19.2263 46.0964 23.8158 44.4097C24.5723 44.1315 25.3671 43.9067 26.0683 43.5593C26.8926 43.1502 27.7764 42.2845 27.3387 41.341C26.8428 40.2716 25.7637 40.3471 24.842 40.7397C24.6496 40.8222 24.4542 40.8977 24.257 40.9686C22.0907 41.7463 12.2588 45.8951 11.9313 45.1937C11.8207 44.9575 11.8581 44.6827 11.8999 44.4255C13.1034 37.0033 16.2906 29.9331 20.0559 23.4731C22.5892 19.126 25.8406 15.1994 29.6294 11.8874C32.6739 9.22577 36.1064 6.96599 39.8455 5.40628C43.855 3.73348 47.7352 3.38882 52.0185 3.13439C54.4843 2.98817 52.5313 0.638911 51.1593 0.374295C49.6515 0.083026 48.0372 0.606093 46.5724 0.91103C41.9385 1.87811 37.7067 3.59325 33.8851 5.90098Z" fill="#08750A"/>
</svg>
