<svg width="161" height="61" viewBox="0 0 161 61" fill="none" xmlns="http://www.w3.org/2000/svg">
<path d="M37.8851 13.901C25.0008 21.6818 17.8472 35.9119 13.5478 49.8289C13.3267 50.5441 13.0565 51.2619 12.8096 51.9605C12.1192 50.5676 7.40843 38.9998 5.50654 39.707C4.39502 40.1204 5.03083 41.6059 5.27544 42.2052C7.04601 46.5372 8.77571 50.4209 10.8913 54.6102C12.4835 57.7639 15.4465 56.9418 18.3816 55.9819C22.8627 54.5165 23.2263 54.0964 27.8158 52.4097C28.5723 52.1315 29.3671 51.9067 30.0683 51.5593C30.8926 51.1502 31.7764 50.2845 31.3387 49.341C30.8428 48.2716 29.7637 48.3471 28.842 48.7397C28.6496 48.8222 28.4542 48.8977 28.257 48.9686C26.0907 49.7463 16.2588 53.8951 15.9313 53.1937C15.8207 52.9575 15.8581 52.6827 15.8999 52.4255C17.1034 45.0033 20.2906 37.9331 24.0559 31.4731C26.5892 27.126 29.8406 23.1994 33.6294 19.8874C36.6739 17.2258 40.1064 14.966 43.8455 13.4063C47.855 11.7335 51.7352 11.3888 56.0185 11.1344C58.4843 10.9882 56.5313 8.63891 55.1593 8.37429C53.6515 8.08303 52.0372 8.60609 50.5724 8.91103C45.9385 9.87811 41.7067 11.5932 37.8851 13.901Z" fill="#08750A"/>
<path d="M68.9879 4.81818H70.8522L74.0937 12.733H74.213L77.4545 4.81818H79.3188V15H77.8572V7.6321H77.7627L74.7599 14.9851H73.5468L70.544 7.62713H70.4495V15H68.9879V4.81818ZM84.6496 15.1541C83.9337 15.1541 83.309 14.9901 82.7753 14.6619C82.2417 14.3338 81.8274 13.8748 81.5324 13.2848C81.2375 12.6948 81.09 12.0054 81.09 11.2166C81.09 10.4245 81.2375 9.73177 81.5324 9.13849C81.8274 8.54522 82.2417 8.08452 82.7753 7.75639C83.309 7.42827 83.9337 7.2642 84.6496 7.2642C85.3655 7.2642 85.9903 7.42827 86.5239 7.75639C87.0575 8.08452 87.4718 8.54522 87.7668 9.13849C88.0618 9.73177 88.2093 10.4245 88.2093 11.2166C88.2093 12.0054 88.0618 12.6948 87.7668 13.2848C87.4718 13.8748 87.0575 14.3338 86.5239 14.6619C85.9903 14.9901 85.3655 15.1541 84.6496 15.1541ZM84.6546 13.9062C85.1186 13.9062 85.5031 13.7836 85.808 13.5384C86.1129 13.2931 86.3383 12.9666 86.4841 12.5589C86.6333 12.1513 86.7079 11.7022 86.7079 11.2116C86.7079 10.7244 86.6333 10.277 86.4841 9.86932C86.3383 9.45833 86.1129 9.12855 85.808 8.87997C85.5031 8.63139 85.1186 8.5071 84.6546 8.5071C84.1873 8.5071 83.7995 8.63139 83.4912 8.87997C83.1863 9.12855 82.9593 9.45833 82.8101 9.86932C82.6643 10.277 82.5914 10.7244 82.5914 11.2116C82.5914 11.7022 82.6643 12.1513 82.8101 12.5589C82.9593 12.9666 83.1863 13.2931 83.4912 13.5384C83.7995 13.7836 84.1873 13.9062 84.6546 13.9062ZM95.5909 9.22798L94.2436 9.46662C94.1872 9.29427 94.0977 9.13021 93.9751 8.97443C93.8558 8.81865 93.6934 8.69105 93.4879 8.59162C93.2824 8.49219 93.0255 8.44247 92.7173 8.44247C92.2963 8.44247 91.945 8.53693 91.6633 8.72585C91.3816 8.91146 91.2407 9.15175 91.2407 9.44673C91.2407 9.70194 91.3352 9.90743 91.5241 10.0632C91.713 10.219 92.0179 10.3466 92.4389 10.446L93.6519 10.7244C94.3546 10.8868 94.8783 11.1371 95.223 11.4751C95.5677 11.8132 95.74 12.2524 95.74 12.7926C95.74 13.25 95.6074 13.6577 95.3423 14.0156C95.0804 14.3703 94.7142 14.6487 94.2436 14.8509C93.7762 15.053 93.2343 15.1541 92.6178 15.1541C91.7627 15.1541 91.065 14.9718 90.5248 14.6072C89.9846 14.2393 89.6531 13.7173 89.5305 13.0412L90.9673 12.8224C91.0568 13.197 91.2407 13.4804 91.5191 13.6726C91.7975 13.8615 92.1605 13.956 92.6079 13.956C93.0951 13.956 93.4846 13.8549 93.7762 13.6527C94.0679 13.4472 94.2137 13.197 94.2137 12.902C94.2137 12.6634 94.1242 12.4628 93.9453 12.3004C93.7696 12.138 93.4995 12.0154 93.1349 11.9325L91.8423 11.6491C91.1297 11.4867 90.6027 11.2282 90.2613 10.8736C89.9232 10.5189 89.7542 10.0698 89.7542 9.52628C89.7542 9.07552 89.8802 8.68111 90.132 8.34304C90.3839 8.00497 90.732 7.74148 91.1761 7.55256C91.6202 7.36032 92.129 7.2642 92.7024 7.2642C93.5276 7.2642 94.1773 7.44318 94.6512 7.80114C95.1252 8.15578 95.4384 8.63139 95.5909 9.22798ZM100.939 7.36364V8.55682H96.7679V7.36364H100.939ZM97.8865 5.53409H99.373V12.7578C99.373 13.0462 99.4161 13.2633 99.5023 13.4091C99.5884 13.5516 99.6995 13.6494 99.8353 13.7024C99.9746 13.7521 100.125 13.777 100.288 13.777C100.407 13.777 100.511 13.7687 100.601 13.7521C100.69 13.7356 100.76 13.7223 100.81 13.7124L101.078 14.9403C100.992 14.9735 100.869 15.0066 100.71 15.0398C100.551 15.0762 100.352 15.0961 100.114 15.0994C99.7227 15.1061 99.3581 15.0365 99.02 14.8906C98.6819 14.7448 98.4085 14.5194 98.1997 14.2145C97.9909 13.9096 97.8865 13.5268 97.8865 13.0661V5.53409ZM106.288 17.8636V7.36364H107.74V8.60156H107.864C107.951 8.44247 108.075 8.25852 108.237 8.04972C108.4 7.84091 108.625 7.65862 108.913 7.50284C109.202 7.34375 109.583 7.2642 110.057 7.2642C110.673 7.2642 111.224 7.41998 111.708 7.73153C112.191 8.04309 112.571 8.49219 112.846 9.07884C113.124 9.66548 113.264 10.3714 113.264 11.1967C113.264 12.022 113.126 12.7296 112.851 13.3196C112.576 13.9062 112.198 14.3587 111.717 14.6768C111.237 14.9917 110.688 15.1491 110.072 15.1491C109.608 15.1491 109.228 15.0713 108.933 14.9155C108.642 14.7597 108.413 14.5774 108.247 14.3686C108.082 14.1598 107.954 13.9742 107.864 13.8118H107.775V17.8636H106.288ZM107.745 11.1818C107.745 11.7187 107.823 12.1894 107.979 12.5938C108.135 12.9981 108.36 13.3146 108.655 13.5433C108.95 13.7687 109.311 13.8814 109.739 13.8814C110.183 13.8814 110.554 13.7637 110.852 13.5284C111.151 13.2898 111.376 12.9666 111.529 12.5589C111.684 12.1513 111.762 11.6922 111.762 11.1818C111.762 10.678 111.686 10.2256 111.534 9.82457C111.384 9.42353 111.159 9.10701 110.857 8.875C110.559 8.64299 110.186 8.52699 109.739 8.52699C109.308 8.52699 108.943 8.63802 108.645 8.86009C108.35 9.08215 108.126 9.39205 107.974 9.78977C107.821 10.1875 107.745 10.6515 107.745 11.1818ZM118.146 15.1541C117.43 15.1541 116.805 14.9901 116.271 14.6619C115.738 14.3338 115.324 13.8748 115.029 13.2848C114.734 12.6948 114.586 12.0054 114.586 11.2166C114.586 10.4245 114.734 9.73177 115.029 9.13849C115.324 8.54522 115.738 8.08452 116.271 7.75639C116.805 7.42827 117.43 7.2642 118.146 7.2642C118.862 7.2642 119.486 7.42827 120.02 7.75639C120.554 8.08452 120.968 8.54522 121.263 9.13849C121.558 9.73177 121.705 10.4245 121.705 11.2166C121.705 12.0054 121.558 12.6948 121.263 13.2848C120.968 13.8748 120.554 14.3338 120.02 14.6619C119.486 14.9901 118.862 15.1541 118.146 15.1541ZM118.151 13.9062C118.615 13.9062 118.999 13.7836 119.304 13.5384C119.609 13.2931 119.834 12.9666 119.98 12.5589C120.129 12.1513 120.204 11.7022 120.204 11.2116C120.204 10.7244 120.129 10.277 119.98 9.86932C119.834 9.45833 119.609 9.12855 119.304 8.87997C118.999 8.63139 118.615 8.5071 118.151 8.5071C117.683 8.5071 117.296 8.63139 116.987 8.87997C116.682 9.12855 116.455 9.45833 116.306 9.86932C116.16 10.277 116.087 10.7244 116.087 11.2116C116.087 11.7022 116.16 12.1513 116.306 12.5589C116.455 12.9666 116.682 13.2931 116.987 13.5384C117.296 13.7836 117.683 13.9062 118.151 13.9062ZM123.365 17.8636V7.36364H124.816V8.60156H124.941C125.027 8.44247 125.151 8.25852 125.314 8.04972C125.476 7.84091 125.701 7.65862 125.99 7.50284C126.278 7.34375 126.659 7.2642 127.133 7.2642C127.75 7.2642 128.3 7.41998 128.784 7.73153C129.268 8.04309 129.647 8.49219 129.922 9.07884C130.201 9.66548 130.34 10.3714 130.34 11.1967C130.34 12.022 130.202 12.7296 129.927 13.3196C129.652 13.9062 129.274 14.3587 128.794 14.6768C128.313 14.9917 127.765 15.1491 127.148 15.1491C126.684 15.1491 126.305 15.0713 126.01 14.9155C125.718 14.7597 125.489 14.5774 125.323 14.3686C125.158 14.1598 125.03 13.9742 124.941 13.8118H124.851V17.8636H123.365ZM124.821 11.1818C124.821 11.7187 124.899 12.1894 125.055 12.5938C125.211 12.9981 125.436 13.3146 125.731 13.5433C126.026 13.7687 126.387 13.8814 126.815 13.8814C127.259 13.8814 127.63 13.7637 127.929 13.5284C128.227 13.2898 128.452 12.9666 128.605 12.5589C128.76 12.1513 128.838 11.6922 128.838 11.1818C128.838 10.678 128.762 10.2256 128.61 9.82457C128.461 9.42353 128.235 9.10701 127.934 8.875C127.635 8.64299 127.262 8.52699 126.815 8.52699C126.384 8.52699 126.019 8.63802 125.721 8.86009C125.426 9.08215 125.202 9.39205 125.05 9.78977C124.898 10.1875 124.821 10.6515 124.821 11.1818ZM136.843 11.8331V7.36364H138.334V15H136.872V13.6776H136.793C136.617 14.0852 136.336 14.425 135.948 14.6967C135.563 14.9652 135.084 15.0994 134.511 15.0994C134.02 15.0994 133.586 14.9917 133.208 14.7763C132.834 14.5575 132.539 14.2344 132.323 13.8068C132.111 13.3793 132.005 12.8506 132.005 12.2209V7.36364H133.492V12.0419C133.492 12.5623 133.636 12.9766 133.924 13.2848C134.213 13.593 134.587 13.7472 135.048 13.7472C135.326 13.7472 135.603 13.6776 135.878 13.5384C136.157 13.3991 136.387 13.1887 136.569 12.907C136.755 12.6252 136.846 12.2673 136.843 11.8331ZM141.818 4.81818V15H140.331V4.81818H141.818ZM146.04 15.169C145.556 15.169 145.119 15.0795 144.728 14.9006C144.336 14.7183 144.027 14.4548 143.798 14.1101C143.573 13.7654 143.46 13.3428 143.46 12.8423C143.46 12.4115 143.543 12.0568 143.708 11.7784C143.874 11.5 144.098 11.2796 144.38 11.1172C144.661 10.9548 144.976 10.8321 145.324 10.7493C145.672 10.6664 146.027 10.6035 146.388 10.5604C146.845 10.5073 147.217 10.4643 147.502 10.4311C147.787 10.3946 147.994 10.3366 148.123 10.2571C148.252 10.1776 148.317 10.0483 148.317 9.86932V9.83452C148.317 9.40033 148.194 9.06392 147.949 8.82528C147.707 8.58665 147.346 8.46733 146.865 8.46733C146.365 8.46733 145.97 8.57836 145.682 8.80043C145.397 9.01918 145.2 9.26278 145.09 9.53125L143.693 9.21307C143.859 8.74905 144.101 8.37453 144.419 8.08949C144.741 7.80114 145.11 7.59233 145.528 7.46307C145.946 7.33049 146.385 7.2642 146.845 7.2642C147.15 7.2642 147.474 7.30066 147.815 7.37358C148.16 7.44318 148.481 7.57244 148.779 7.76136C149.081 7.95028 149.328 8.22041 149.52 8.57173C149.712 8.91974 149.809 9.37216 149.809 9.92898V15H148.357V13.956H148.297C148.201 14.1482 148.057 14.3371 147.865 14.5227C147.672 14.7083 147.425 14.8625 147.124 14.9851C146.822 15.1077 146.461 15.169 146.04 15.169ZM146.363 13.9759C146.774 13.9759 147.126 13.8946 147.417 13.7322C147.712 13.5698 147.936 13.3577 148.088 13.0959C148.244 12.8307 148.322 12.5473 148.322 12.2457V11.2614C148.269 11.3144 148.166 11.3641 148.014 11.4105C147.865 11.4536 147.694 11.4917 147.502 11.5249C147.309 11.5547 147.122 11.5829 146.94 11.6094C146.758 11.6326 146.605 11.6525 146.483 11.669C146.194 11.7055 145.931 11.7668 145.692 11.853C145.457 11.9392 145.268 12.0634 145.125 12.2259C144.986 12.3849 144.916 12.5971 144.916 12.8622C144.916 13.2301 145.052 13.5085 145.324 13.6974C145.596 13.883 145.942 13.9759 146.363 13.9759ZM151.788 15V7.36364H153.225V8.5767H153.305C153.444 8.16572 153.689 7.84257 154.041 7.60724C154.395 7.36861 154.796 7.24929 155.244 7.24929C155.337 7.24929 155.446 7.2526 155.572 7.25923C155.701 7.26586 155.802 7.27415 155.875 7.28409V8.70597C155.815 8.68939 155.709 8.67116 155.557 8.65128C155.404 8.62808 155.252 8.61648 155.1 8.61648C154.748 8.61648 154.435 8.69105 154.16 8.8402C153.888 8.98603 153.673 9.18987 153.514 9.4517C153.355 9.71023 153.275 10.0052 153.275 10.3366V15H151.788ZM159.036 4.81818L158.907 12.0717H157.529L157.4 4.81818H159.036ZM158.22 15.0945C157.945 15.0945 157.71 14.9983 157.515 14.8061C157.319 14.6106 157.223 14.3752 157.226 14.1001C157.223 13.8284 157.319 13.5964 157.515 13.4041C157.71 13.2086 157.945 13.1108 158.22 13.1108C158.489 13.1108 158.721 13.2086 158.916 13.4041C159.112 13.5964 159.211 13.8284 159.215 14.1001C159.211 14.2824 159.163 14.4498 159.071 14.6023C158.981 14.7514 158.862 14.8707 158.713 14.9602C158.564 15.0497 158.399 15.0945 158.22 15.0945Z" fill="#08750A"/>
</svg>
