<svg width="12" height="21" viewBox="0 0 12 21" fill="none" xmlns="http://www.w3.org/2000/svg">
<path d="M11.5411 0.455639C11.8349 0.747472 12 1.14323 12 1.55588C12 1.96854 11.8349 2.36429 11.5411 2.65613L3.78308 10.3594L11.5411 18.0627C11.8266 18.3562 11.9846 18.7493 11.981 19.1573C11.9774 19.5653 11.8126 19.9557 11.522 20.2442C11.2314 20.5327 10.8383 20.6964 10.4274 20.6999C10.0165 20.7035 9.62058 20.5466 9.32499 20.2631L0.458878 11.4596C0.165059 11.1678 0 10.772 0 10.3594C0 9.94674 0.165059 9.55098 0.458878 9.25915L9.32499 0.455639C9.6189 0.163893 10.0175 0 10.4331 0C10.8486 0 11.2472 0.163893 11.5411 0.455639Z" fill="#08750A"/>
</svg>
