<svg width="31" height="31" viewBox="0 0 31 31" fill="none" xmlns="http://www.w3.org/2000/svg">
<path d="M2.17437 9.63045C2.29888 7.71351 3.84007 6.2112 5.7587 6.11615C8.537 5.97851 12.508 5.8125 15.5 5.8125C18.492 5.8125 22.463 5.97851 25.2413 6.11615C27.1599 6.2112 28.7011 7.71351 28.8256 9.63045C28.9449 11.467 29.0625 13.7269 29.0625 15.5C29.0625 17.2731 28.9449 19.533 28.8256 21.3696C28.7011 23.2865 27.1599 24.7888 25.2413 24.8839C22.463 25.0215 18.492 25.1875 15.5 25.1875C12.508 25.1875 8.537 25.0215 5.7587 24.8839C3.84008 24.7888 2.29888 23.2865 2.17437 21.3696C2.05507 19.533 1.9375 17.2731 1.9375 15.5C1.9375 13.7269 2.05507 11.467 2.17437 9.63045Z" fill="#08750A"/>
<path d="M12.5938 11.625V19.375L20.3438 15.5L12.5938 11.625Z" fill="#211E1E"/>
</svg>
